PathFileType        4      (X/Y/Z)      C:\Users\pc\Desktop\IMUTRC\Sujet_06\Sujet_06_velo_60.trc         
DataRate	CameraRate	NumFrames	NumMarkers	Units	OrigDataRate	OrigDataStartFrame	OrigNumFrames
60.0	60.0	4	64	mm	60.0	703	936
Frame#	Time	pHipOrigin			pRightASI			pLeftASI			pRightCSI			pLeftCSI			pRightIschialTub			pLeftIschialTub			pSacrum			pL5SpinalProcess			pL3SpinalProcess			pT12SpinalProcess			pIJ			pT4SpinalProcess			pT8SpinalProcess			pPX			pC7SpinalProcess			pTopOfHead			pRightAuricularis			pLeftAuricularis			pBackOfHead			pRightAcromion			pLeftAcromion			pRightArmLatEpicondyle			pRightArmMedEpicondyle			pLeftArmLatEpicondyle			pLeftArmMedEpicondyle			pRightUlnarStyloid			pRightRadialStyloid			pRightOlecranon			pLeftUlnarStyloid			pLeftRadialStyloid			pLeftOlecranon			pRightTopOfHand			pRightPinky			pRightBallHand			pLeftTopOfHand			pLeftPinky			pLeftBallHand			pRightGreaterTrochanter			pRightKneeLatEpicondyle			pRightKneeMedEpicondyle			pRightPatella			pLeftGreaterTrochanter			pLeftKneeLatEpicondyle			pLeftKneeMedEpicondyle			pLeftPatella			pRightTibialTub			pRightLatMalleolus			pRightMedMalleolus			pLeftTibialTub			pLeftLatMalleolus			pLeftMedMalleolus			pRightHeelFoot			pRightFirstMetatarsal			pRightFifthMetatarsal			pRightPivotFoot			pRightHeelCenter			pRightToe			pLeftHeelFoot			pLeftFirstMetatarsal			pLeftFifthMetatarsal			pLeftPivotFoot			pLeftHeelCenter			pLeftToe			
		X1	Y1	Z1	X2	Y2	Z2	X3	Y3	Z3	X4	Y4	Z4	X5	Y5	Z5	X6	Y6	Z6	X7	Y7	Z7	X8	Y8	Z8	X9	Y9	Z9	X10	Y10	Z10	X11	Y11	Z11	X12	Y12	Z12	X13	Y13	Z13	X14	Y14	Z14	X15	Y15	Z15	X16	Y16	Z16	X17	Y17	Z17	X18	Y18	Z18	X19	Y19	Z19	X20	Y20	Z20	X21	Y21	Z21	X22	Y22	Z22	X23	Y23	Z23	X24	Y24	Z24	X25	Y25	Z25	X26	Y26	Z26	X27	Y27	Z27	X28	Y28	Z28	X29	Y29	Z29	X30	Y30	Z30	X31	Y31	Z31	X32	Y32	Z32	X33	Y33	Z33	X34	Y34	Z34	X35	Y35	Z35	X36	Y36	Z36	X37	Y37	Z37	X38	Y38	Z38	X39	Y39	Z39	X40	Y40	Z40	X41	Y41	Z41	X42	Y42	Z42	X43	Y43	Z43	X44	Y44	Z44	X45	Y45	Z45	X46	Y46	Z46	X47	Y47	Z47	X48	Y48	Z48	X49	Y49	Z49	X50	Y50	Z50	X51	Y51	Z51	X52	Y52	Z52	X53	Y53	Z53	X54	Y54	Z54	X55	Y55	Z55	X56	Y56	Z56	X57	Y57	Z57	X58	Y58	Z58	X59	Y59	Z59	X60	Y60	Z60	X61	Y61	Z61	X62	Y62	Z62	X63	Y63	Z63	X64	Y64	Z64	
703	11.7	0.0	1249.97291	7.653876616262013E-14	42.50530000000001	1329.75841	126.51785000000008	77.67197999999999	1338.91701	-101.15556999999993	8.571510000000012	1390.05254	105.38262000000009	38.21954999999999	1397.80212	-86.59574999999991	-56.83028999999999	1200.30511	38.45438000000008	-42.035630000000005	1204.12119	-57.53479999999992	-57.06513	1270.52105	-7.984419999999915	-24.59906	1361.22643	-0.35224999999991363	23.42488	1470.42513	7.808290000000087	70.03981	1569.23234	14.207570000000088	317.0872	1649.01785	55.83224000000006	188.51454	1728.15756	29.002240000000086	127.28107	1661.1119	21.13523000000009	237.3017	1553.96801	45.910420000000066	233.07465	1773.5396	35.518930000000076	513.1752	1797.25803	27.534510000000047	416.83376	1785.04656	109.43354000000005	404.15262	1777.53181	-34.52087999999994	401.56943	1837.41497	35.284100000000066	204.83563000000004	1742.36513	216.6361400000001	263.83816	1730.50591	-141.8996099999999	364.40664	1490.79715	212.93747000000002	353.83903	1484.45658	151.11692000000002	437.44062	1495.43516	-140.19704999999996	406.55969	1469.36837	-91.82084999999996	521.27704	1303.92646	262.31173	555.0347	1328.05585	230.96113000000003	340.10113	1478.29213	199.31699000000006	637.99049	1348.72141	-160.51035	651.37614	1365.57089	-113.13221	413.48735	1476.88312	-141.31251999999998	705.97549	1321.12819	231.25467	636.58148	1290.71694	261.72464	568.7139	1297.82073	248.10415000000003	805.07625	1356.35358	-86.24349000000001	745.48664	1338.68218	-139.2577	675.91649	1340.56086	-138.6119	-4.461879999999982	1214.51268	145.95053000000007	217.75161000000003	906.93633	132.91713000000001	231.95918	913.15949	60.76380000000003	256.55825	935.99728	102.79943000000003	50.07875999999999	1251.14709	-142.72152999999992	401.15846	1115.70547	-92.23180999999997	393.58501	1107.01654	-19.373959999999983	408.32096	1150.40248	-47.49556999999998	251.80282	863.72652	105.44133000000002	6.692820000000014	582.33438	116.36120000000004	18.141080000000006	576.28735	58.70898000000003	437.08836	1076.72271	-52.720659999999995	307.9286	731.33777	-110.90126	304.58219	727.69782	-52.01615999999999	-64.28632999999999	533.01884	70.33336000000004	68.27854000000002	440.90444	74.03202000000002	48.55233000000002	446.24696	147.65309000000002	75.55846000000001	431.04134	115.30444000000001	-33.933789999999995	513.1752	79.90292000000002	135.03066000000004	387.47927	134.44357	245.28612	661.70892	-82.07514999999998	394.23081	615.32883	-40.39178000000001	396.22691	614.27206	-116.77216	415.83571	608.22504	-76.90876000000002	281.50956	652.25678	-81.01838999999998	488.45872	585.26983	-74.73653000000002	
704	11.717	0.0	1249.97291	7.653876616262013E-14	42.03563000000001	1329.87583	126.57656000000009	78.02423999999999	1338.7996	-100.97944999999993	8.160550000000013	1390.16995	105.26520000000008	38.45437999999999	1397.6847	-86.59574999999991	-56.947709999999994	1200.30511	38.27826000000008	-41.800790000000006	1204.06248	-57.65221999999992	-57.06513	1270.46234	-8.219259999999915	-24.59906	1361.22643	-0.5283799999999136	23.30747	1470.42513	7.7495900000000875	69.74627	1569.29105	14.266280000000087	316.55882	1649.3701	56.71288000000006	187.92745	1728.33368	29.471910000000086	126.87011	1661.22932	21.42878000000009	236.94945	1554.26155	46.55622000000007	232.48756	1773.83314	36.16473000000008	512.58811	1797.37544	28.767400000000045	416.12926	1785.3401	110.49030000000006	403.62424	1777.76664	-33.464119999999944	400.98234	1837.6498	36.34086000000006	204.01371000000003	1742.95222	217.10581000000008	263.54461	1730.62333	-141.31251999999992	363.81955	1491.38424	213.17231000000004	353.60419	1485.39592	151.23433000000003	437.20578	1495.61128	-139.72736999999998	406.38356	1469.6032	-91.23375999999998	520.63124	1304.51355	262.66398	554.50632	1328.70165	231.43080000000003	339.69016	1479.05535	199.43441000000007	637.69695	1348.89754	-160.04068	651.0826	1365.74702	-112.60382	413.25252	1477.17666	-140.78413999999998	705.3884	1321.89141	231.72435	635.99439	1291.42145	262.1356	568.18552	1298.46653	248.51512000000002	804.78271	1356.35358	-85.77382000000001	745.19309	1338.7996	-138.78803	675.68166	1340.73699	-138.14223	-3.581249999999982	1215.2759	146.06794000000008	225.67732000000004	912.86594	133.79777000000004	239.2391	918.91297	61.46830000000003	263.60332	942.63139	103.15168000000003	50.31359999999999	1249.44453	-142.66281999999993	396.93142	1103.20046	-91.23375999999998	389.00571	1095.21603	-18.258489999999977	405.15068	1137.89746	-46.67363999999998	257.14534	868.83421	105.91100000000003	0.2348400000000144	598.1858	117.71151000000005	11.096000000000007	591.78653	59.94187000000004	433.91808	1065.568	-51.72260999999999	313.68208	716.95407	-110.13805	310.45309	713.25541	-51.19422999999999	-72.15333999999999	550.39669	72.32946000000004	58.12189000000001	455.11202	76.32167000000001	38.86535000000002	461.57001	149.94274000000001	65.34310000000002	445.42504	117.59409000000001	-42.270469999999996	529.90726	81.95774000000003	123.81724000000001	400.57138	136.85063	252.62474	645.8575	-81.66418999999999	402.45006	602.7651	-39.628560000000014	404.681	601.94318	-116.00895	424.34851	596.24841	-76.14555000000001	289.08302	637.28599	-80.49000999999998	497.44119	574.93705	-73.73848000000002	
705	11.733	0.0	1249.97291	7.653876616262013E-14	41.50725000000001	1329.93454	126.69398000000008	78.49390999999999	1338.74089	-100.68589999999993	7.690880000000013	1390.22866	105.20649000000009	38.86534999999999	1397.62599	-86.47832999999991	-57.123839999999994	1200.36382	38.043420000000076	-41.565960000000004	1204.06248	-57.82834999999992	-57.00642	1270.46234	-8.512799999999915	-24.59906	1361.16772	-0.7045099999999136	23.19005	1470.48384	7.808290000000087	69.51143	1569.34976	14.442410000000088	316.08915	1649.83978	57.76964000000007	187.39907	1728.56852	30.117710000000084	126.45914	1661.34674	21.78103000000009	236.59719	1554.5551	47.260730000000066	231.84176	1774.12669	36.98666000000008	512.00102	1797.61028	30.293830000000046	415.30733	1785.69236	111.78190000000005	403.15457	1778.06019	-32.23122999999994	400.39525	1838.00206	37.51504000000006	203.13307000000003	1743.65673	217.63419000000007	263.25107	1730.85817	-140.60800999999992	363.23246	1492.03003	213.40714000000003	353.36935	1486.45268	151.41046000000003	436.97094	1495.96354	-139.25769999999997	406.26615	1469.89675	-90.76407999999998	519.92673	1305.15935	262.89882	553.91923	1329.34745	231.84176000000002	339.22049	1479.87728	199.61053000000007	637.4034	1349.01496	-159.57101	650.78905	1365.80573	-112.13415	413.07639	1477.47021	-140.37316999999996	704.7426	1322.65463	232.13531	635.34859	1292.12596	262.54656	567.48101	1299.17103	248.86737000000002	804.48916	1356.23616	-85.30415000000002	744.84084	1338.74089	-138.31836	675.3294	1340.7957	-137.67256	-2.818029999999982	1216.03912	146.1853600000001	233.77916000000002	919.26522	134.73711000000003	246.81255	925.13612	62.29023000000003	270.76582	949.73518	103.68006000000003	50.54842999999999	1247.74197	-142.54540999999992	391.70632	1089.40385	-90.29440999999997	383.48706	1082.06522	-17.31914999999998	401.15846	1124.04214	-45.91041999999998	262.72269	874.41156	106.43938000000003	-5.166389999999986	614.68303	119.29665000000004	5.048970000000007	608.04891	61.468300000000035	429.80845	1052.94557	-50.78326999999999	318.08526	701.57232	-109.37483	314.85626	697.75624	-50.48971999999999	-78.90486999999999	568.53777	74.56041000000005	49.198130000000006	470.31764	78.61133000000002	30.35254000000002	477.71498	152.23239000000004	56.36062000000001	460.74808	119.94245000000002	-49.49166999999999	547.46124	84.18868000000003	113.89542000000002	414.72024	139.25770000000003	258.37822	629.36027	-81.31193999999999	408.90805	589.0272	-38.865350000000014	411.37383	588.44011	-115.24573000000001	430.98263	583.03889	-75.32362000000002	295.01263	621.49327	-80.02034	504.48627	563.13654	-72.74043000000003	
706	11.75	0.0	1249.97291	7.653876616262013E-14	40.92016000000002	1330.05196	126.87011000000008	78.96357999999998	1338.62347	-100.39235999999993	7.2799100000000125	1390.28737	105.14778000000008	39.33501999999999	1397.56729	-86.41961999999991	-57.35866999999999	1200.36382	37.80858000000008	-41.331120000000006	1204.00378	-57.94575999999992	-56.94771	1270.52105	-8.747639999999915	-24.59906	1361.16772	-0.8806299999999136	23.13134	1470.48384	7.7495900000000875	69.33531	1569.40847	14.618540000000086	315.61948	1650.25074	58.70898000000006	186.92939	1728.74465	30.646090000000086	126.10689	1661.46415	22.133290000000088	236.36236	1554.84864	47.90653000000006	231.31338	1774.42023	37.69117000000008	511.53135	1797.61028	31.702850000000048	414.60282	1785.92719	113.01479000000006	402.80232	1778.23632	-30.99833999999994	399.98429	1838.17819	38.68922000000006	202.36986000000002	1744.30252	218.10386000000008	263.13365	1731.15171	-139.9622099999999	362.64537	1492.55842	213.64198000000002	353.19323	1487.39203	151.58659000000003	436.85353	1496.3745	-138.90544999999997	406.09002	1470.13159	-90.52924999999996	519.22223	1305.62902	263.19236	553.27343	1329.87583	232.19402000000002	338.75082	1480.58178	199.72795000000005	637.10986	1349.07367	-159.16005	650.49551	1365.80573	-111.72319	412.95897	1477.82246	-140.07962999999998	704.0381	1323.24172	232.48756	634.70279	1292.71305	262.84011	566.83521	1299.69941	249.16091000000003	804.13691	1356.00133	-84.83448000000001	744.48858	1338.62347	-137.84869	675.03586	1340.73699	-137.2616	-2.113519999999982	1216.80233	146.24407000000008	242.17455000000004	926.3103	135.61775000000003	254.73827	932.00507	63.11215000000003	278.22186	957.54347	104.26715000000003	50.72455999999998	1245.86328	-142.48669999999993	385.42446	1074.60918	-89.53119999999997	376.97036	1067.91636	-16.555929999999982	396.22691	1109.07135	-45.32332999999998	268.711	880.92826	106.96776000000003	-8.923769999999985	631.70863	120.88179000000004	0.6458000000000077	624.83968	62.994740000000036	424.46593	1039.4425	-50.02004999999998	320.90329	685.60348	-108.72903	317.733	681.66997	-49.785219999999995	-84.07125999999998	587.08981	76.67393000000006	41.800790000000006	485.99294	80.60743000000002	23.54230000000002	494.2122	154.34591000000003	48.963290000000015	476.5408	121.93855000000003	-55.069019999999995	565.36748	86.30220000000003	105.55875000000002	429.28007	141.25381000000002	262.37043	612.39338	-80.90097999999999	413.42864	574.46738	-38.160840000000015	416.12926	574.11512	-114.48251000000003	435.73805	568.89002	-74.56041000000003	299.12226	605.05475	-79.60938	509.53524	550.22057	-71.80108000000003	
